<svg id="Group_491" data-name="Group 491" xmlns="http://www.w3.org/2000/svg" xmlns:xlink="http://www.w3.org/1999/xlink" width="40.525" height="62.95" viewBox="0 0 40.525 62.95">
  <defs>
    <clipPath id="clip-path">
      <rect id="Rectangle_339" data-name="Rectangle 339" width="40.525" height="62.95" fill="none"/>
    </clipPath>
  </defs>
  <g id="Group_490" data-name="Group 490" clip-path="url(#clip-path)">
    <path id="Path_220" data-name="Path 220" d="M149.63,150.26c-.213.337-1.683.37-1.466-.565.409-1.758,1.99-.263,1.466.565" transform="translate(-118.848 -119.437)" fill="#472613"/>
    <path id="Path_221" data-name="Path 221" d="M175.312,117.58c-1.331.774-1.943-2.338-.252-2.533,1.076-.124,1.024,2.084.252,2.533" transform="translate(-139.617 -92.293)" fill="#472413"/>
    <path id="Path_222" data-name="Path 222" d="M177.36,118.991c.238.21.01,1.169-.293,1.179-.663.023.026-1.415.293-1.179" transform="translate(-141.829 -95.441)" fill="#ff7b20"/>
    <path id="Path_223" data-name="Path 223" d="M16.942,118.233c1.466-.282,2.019,2.559-.222,2.13-.935-.179-.529-1.985.222-2.13" transform="translate(-12.978 -94.837)" fill="#452212"/>
    <path id="Path_224" data-name="Path 224" d="M20.2,122l-.786,0v-.987c.744-.117.859.339.785.985" transform="translate(-15.576 -97.075)" fill="#ff7b20"/>
    <path id="Path_225" data-name="Path 225" d="M33.315,21c-.12-.712-.041-1.766.856-1.766,1.6,0,.988,2.842-.856,1.766" transform="translate(-26.692 -15.43)" fill="#452312"/>
    <path id="Path_226" data-name="Path 226" d="M36.17,22.329c-.111-.111,0-.888.294-.981,1.011.533.035,1.312-.294.981" transform="translate(-28.984 -17.127)" fill="#f4741e"/>
    <path id="Path_227" data-name="Path 227" d="M47.628,121.723c.1.061.1.432.359.517.5.164,1.38-.228,1.611.562.488,1.669-.486,3.659-2.361,2.817-.253-.114-.28-.49-.554-.681-.986-.689-2.291-.434-1.728-2.333.263-.886,2.063-1.261,2.673-.882" transform="translate(-35.956 -97.535)" fill="#442212"/>
    <path id="Path_228" data-name="Path 228" d="M50.846,125.09c.808.811-.061,2.688-1.181,1.973-.746-.69-3.328-1.477-1.431-2.523.959-.529,1.126.218,1.823.461a4.661,4.661,0,0,0,.789.089" transform="translate(-38.149 -99.765)" fill="#ff7b20"/>
    <path id="Path_229" data-name="Path 229" d="M59.419,128.074c1.139.274.6,2.16-.536,2.342-.538.086-.454-.193-.645-.369,1.178.253,1.257-1.1,1.181-1.973" transform="translate(-46.722 -102.748)" fill="#cc551b"/>
    <path id="Path_230" data-name="Path 230" d="M17.015,23.687c.521-1.469,1.223-.875,2.162-1.286.315-.138.61-.727,1.183-.984a9.917,9.917,0,0,1,2.57-.384c1.089-.215,5.9-2.679,6.488-2.081.208,2.264-1.914,4.157-3.557,5.413-.4.3-2.553,1.533-2.649,1.686-.378.607.319,1.346.319,2.072,0,.837.03,1.971-.009,2.77-.071,1.428-.283,3.208-1.449,4.174-.148.123-3.114,1.79-3.343,1.879-2.366.925-6.028-.245-8.373-.965-1.448-.445-1.5-1.6-1.845-1.8-.3-.169-.861.106-1.45-.226A3.887,3.887,0,0,1,6,32.659a13.216,13.216,0,0,1-.019-3.366c.26-.621.7-.59.977-.992.184-.266.177-.672.409-.971.059-.076,1.158-1.1,1.233-1.132,1.822-.861,4.56,1.041,6.353,1.055a14.116,14.116,0,0,0,1.64-.246c.112-.071.177-.567.23-.756Z" transform="translate(-4.712 -15.129)" fill="#3c1f11"/>
    <path id="Path_231" data-name="Path 231" d="M61.159,45.841a7.3,7.3,0,0,1,.2-2.565,7.786,7.786,0,0,1-.2,2.565" transform="translate(-49.053 -34.719)" fill="#5c3213"/>
    <path id="Path_232" data-name="Path 232" d="M32.216,22.326c.54.06-.2,1.167-.312,1.364-1.084,1.843-3.461,3.283-5.217,4.439-.312.206-1.878,1.02-1.951,1.106-.021.025-.074.416.1.394l1.077-.4c.022.544.515,1.221.537,1.708.02.446-.371.851-.335,1.338.03.4.425.7.391,1.18-.017.239-.389,1.932-.478,2.3-.477,1.979-2.949,2.639-4.64,1.761-.289.276.832,1.083,1.18.988.078.1-.2.29-.322.365-1.228.775-5.329.357-6.469-.565-.626-.506-1.107-1.907-1.085-.2-1.369.208-1.6-1.372-2.293-1.759-.621-.346-1.284.311-1.85-.7-.357-.635-.136-1.378-.187-2.081A3.522,3.522,0,0,0,13.071,35.5c.606.032,1.185-.319,1.879-.108.32.1.862.835,1.443,1.118a6.454,6.454,0,0,0,2.195.562c2.022.039,2.154-2.272,4.178-2.116q2.134.618.623-.125l-.032-.467c.135.121.2.434.294.394.69-.293.412-1.259.537-1.829.159-.726,1.324-1.572.46-2.325-.539-.469-1.495-.157-1.488-1.368,2.691-1.2,7.048-3.864,8.662-6.313q-.216-.385.394-.592" transform="translate(-8.297 -17.911)" fill="#cc551b"/>
    <path id="Path_233" data-name="Path 233" d="M31.088,24.915c.075.121.125.228.092.291a11.276,11.276,0,0,1-3.134,3.114c-.755.567-4.459,3.032-5.116,3.112a.791.791,0,0,1-.5-.2h0q.964.723,2.019,1.388l.173.536a15.634,15.634,0,0,0-1.075,3.576l-.356-.084c.158.822-1.184.374-.565-.287a4.6,4.6,0,0,1-.591.592,1.956,1.956,0,0,1-1.14.684c-1.966,2.58-4.677,2.185-6.819.115-1.848.307-4.2.074-4.444-2.18a1.46,1.46,0,0,1-.2-.789q.55-.452,1.156-.879c.376-.816,1.4-2.6,2.19-1.685.08.453.256,1.052.786.985.032-.252-.041-.552,0-.788l.593-.115A8.766,8.766,0,0,0,19,33.176l.272.221c-.065.271-.331.773-.1.985.441-.367.444-1.016.887-1.38a7.581,7.581,0,0,0,.727-3.968,2.562,2.562,0,0,0,2.444-1.6l.419-.373a18.627,18.627,0,0,0,7.056-2.248Z" transform="translate(-7.563 -19.908)" fill="#f4741e"/>
    <path id="Path_234" data-name="Path 234" d="M74.634,22.322c-.127.2-.263.394-.394.592a22.722,22.722,0,0,1-5.661,2.317c-.495.105-1.038-.037-1.485.09-.675.191-.814,1.36-1.44,1.713a3.985,3.985,0,0,1-1.456.219c-.136.13.076,2.726-.591,3.673-.224.317-.376.063-.392.076.522-.981.14-4.266.677-4.746.433-.388,1.2-.266,1.676-.491.389-.185.71-.915,1.131-1.036.637-.183,1.683-.155,2.571-.382,1.03-.263,4.894-2.076,5.362-2.024" transform="translate(-50.716 -17.907)" fill="#f4a775"/>
    <path id="Path_235" data-name="Path 235" d="M30.362,61.187c.032-.177,0-.386.184-.5,2-.054,3.494,1.526,5.722.7a3.373,3.373,0,0,1-.2.788,7.7,7.7,0,0,1-5.709-.986" transform="translate(-24.358 -48.684)" fill="#f2a472"/>
    <path id="Path_236" data-name="Path 236" d="M12.8,59.021c-1.686.03-1.463,2.472-3.347,2.565.078-.775.709-.679,1-1.074.21-.289.163-.694.375-1,.285-.417,2.038-2.021,2.1-.868.006.1-.144.28-.126.382" transform="translate(-7.586 -46.715)" fill="#ed9f6d"/>
    <path id="Path_237" data-name="Path 237" d="M42.136,74.019c.178.173.476.934-.04.732-.56-.753-1.841-.425-1.894-1.477-.045-.9.5-.868.784-1.4.3-.573.205-1.25.911-1.652L41.509,72c-1.545,1.844-.115,1.3.627,2.021" transform="translate(-32.25 -56.332)" fill="#4c2311"/>
    <path id="Path_238" data-name="Path 238" d="M72.963,81.451l1.08.589c.155,1.025-1.339.822-1.671,0-.077-.19.05-.7-.2-.985.555-.142.57.2.787.393" transform="translate(-57.904 -65.003)" fill="#492312"/>
    <path id="Path_239" data-name="Path 239" d="M36.061,74.141c.135.365-.617.969-.785.787-.089-.6.171-.877.785-.787" transform="translate(-28.287 -59.467)" fill="#f68d4b"/>
    <path id="Path_240" data-name="Path 240" d="M72.638,54.046c-1.189.528-.416-.74.2-.788.05.271-.195.561-.2.788" transform="translate(-57.775 -42.727)" fill="#f48340"/>
    <path id="Path_241" data-name="Path 241" d="M171.287,141.576c.128.149.385.2.5.383a1.345,1.345,0,0,1-1.946,1.756c-.117-.853-1.53-1.909-.691-2.667a2.71,2.71,0,0,1,1.753-.168c.334.12.236.524.385.7" transform="translate(-135.488 -112.964)" fill="#442212"/>
    <path id="Path_242" data-name="Path 242" d="M174.108,143.9c.206.594-.459,1.094-1.025.97-.137-.03-1.69-2.454-.055-1.959.418.127.528.9,1.081.989" transform="translate(-138.216 -114.599)" fill="#ff7b20"/>
    <path id="Path_243" data-name="Path 243" d="M57.776,3.387a7.354,7.354,0,0,1-.6-1.089c-.224-1.046.268-1.03.733-1.554.291-.328.035-1,1.077-.642.339.116.593,1.824.487,2.194-.152.533-1.057,1.465-1.7,1.09" transform="translate(-45.828 -0.001)" fill="#462312"/>
    <path id="Path_244" data-name="Path 244" d="M61.168,5.541c-1.367-.371-.583-1.576.2-2.169.047.889.327,1.362-.2,2.169" transform="translate(-48.474 -2.705)" fill="#ff7b20"/>
    <path id="Path_245" data-name="Path 245" d="M122,43.529c.116.112.968-.244,1.447.621,1.337,2.408-1.154,2.451-2.507,3.176-.731.391-1.943,1.421-2.092,2.244a16.014,16.014,0,0,1-1.779,5.463c-.739,1.108-.475,1.456-.99,2.373-.091.163-1.524,1.981-1.641,2.039-.641.317-1.508.2-2.088.579-.479.311-.712,1.206-1.533,1.423a7.509,7.509,0,0,1-2.954.1,20.958,20.958,0,0,1-1.731-1.42c-.184-.191-1.991-3.033-2.069-3.253a4.56,4.56,0,0,1,.035-2.943c.286-.561,1.038-.8,1.243-1.122.335-.52.236-1.526.785-2.172.438-.515,1.322-.69,1.871-1.084,1.733-1.245.667-1.012,3.015-1.713.545-.163,1.1-.809,1.832-.925.7-.112,2.094.206,2.44.086a8.108,8.108,0,0,0,1.972-1.583c1.121-1.368,1.268-4.539,4-3.2.92.451.651,1.228.747,1.321" transform="translate(-83.303 -33.604)" fill="#3b1e11"/>
    <path id="Path_246" data-name="Path 246" d="M125.351,48.264a3.312,3.312,0,0,1,.4,1.972c.364.038.255-.658.418-.76.728-.456,1.147.619.939,1.227-.069.2-2.574,1.21-3.118,1.619-.822.617-1.229,1.6-2.175,1.959,1.062,1.064-.114,2.216-.5,3.251-.137.368-.059.809-.188,1.193a3.1,3.1,0,0,1-2.268,1.971l.884.39c.187.013.118.336.069.464-.146.381-1.562,1.729-1.83,2.309-1.743.989-2.074-.779-2.6-.963-.758-.266-1.652.345-2.428-.032.006,1.088,1.694.342,2.133.623a9.013,9.013,0,0,1,.585,1.214,1.836,1.836,0,0,1-.6.991,13.514,13.514,0,0,1-2.569.3,23.8,23.8,0,0,1-1.921-1.639,23.254,23.254,0,0,1-1.569-2.669,3.261,3.261,0,0,0,1.869.807c.644,0,1.1-.371,1.6-.407,1.207-.087,2.381.66,3.719-.2,1.007-.649.818-1.635,1.478-2.465.526-.663,1.231-.73,1.779-1.374.161-.189,1.223-1.591,1.267-1.688.405-.887-.271-1.961,0-2.556.173-.381,2.209-1.5,2.755-1.985a4.585,4.585,0,0,0,1.876-3.545" transform="translate(-87.455 -38.72)" fill="#cc551b"/>
    <path id="Path_247" data-name="Path 247" d="M123.753,46.663c.479,1.473-.3,2.658-1.376,3.614l-2.916,2.1c.787,2.7-1.092,4.295-3.076,5.675-.949,3.217-2.7,3.132-5.468,2.814-1.5.6-2.591.659-3.5-.792-.108-.237-.373-.513-.394-.789a2.937,2.937,0,0,1,2.362-2.17c.491.047,1.014.4,1.377-.1-.519.013-.819-.33-1.18-.492-.541-.207-.3-.8-.053-1.228a32.7,32.7,0,0,1,3.5-2.393A12.743,12.743,0,0,1,117.06,51.2c.577.081.99.524,1.477.593.6.086.077-.3.1-.4l-.05-.2c1.929-1.055,2.691-2.562,3.609-4.442a1.29,1.29,0,0,1,.969-.49c.376.114.351.045.591.394" transform="translate(-85.858 -37.12)" fill="#ef741d"/>
    <path id="Path_248" data-name="Path 248" d="M124.163,71.085c-.575.631-1.582.707-2.34,1.108-1.064.563-2.389,1.609-3.426,2.288-.968.633-1.492.271-1.715,1.931-.2-.089-.754-.084-.8-.323a4.226,4.226,0,0,1,.4-1.515c.192-.267,1.177-.554,1.575-.839.524-.375,1.468-1.717,2.078-1.675.095.007.095.34.133.36.221.113,1.728-1.04,2.365-1.2a4.774,4.774,0,0,1,1.736-.135" transform="translate(-92.961 -57.004)" fill="#f3a673"/>
    <path id="Path_249" data-name="Path 249" d="M169.426,45.977c-1.357.977-1.439,2.529-2.653,3.753-.372.374-1.85,1.263-1.875,1.376-.531-.254.083-.488.254-.633a7.822,7.822,0,0,0,2.077-2.061c.5-.932.636-2.908,2.2-2.435" transform="translate(-132.121 -36.827)" fill="#eb9a66"/>
    <path id="Path_250" data-name="Path 250" d="M109.352,100.481c-.248.661-.936.7-1.387,1.075-.518.428-.407,1.08-.975,1.095a2.037,2.037,0,0,1,1.728-2.327c.355-.036.493.144.634.157" transform="translate(-85.827 -80.481)" fill="#e49765"/>
    <path id="Path_251" data-name="Path 251" d="M142.424,93.736c-.57.176-.355-.474-.71-.579-.379-.111-.837.243-1.31.157-.527-.1-.919-.81-1.522-.858.574-.744,1.06.128,1.522.249.809.212,2.08-.357,2.02,1.032" transform="translate(-111.419 -73.935)" fill="#572611"/>
    <path id="Path_252" data-name="Path 252" d="M20.8,135.9c2.035-.69,3.379,4.225.474,2.826-.687-.331-1.093-2.616-.474-2.826" transform="translate(-16.445 -108.972)" fill="#452312"/>
    <path id="Path_253" data-name="Path 253" d="M23.947,138.741c.017.013-.039.27.135.4.569.428.791.137.851,1.37-.317-.014-.879.113-1.09-.188-.145-.206-.525-2.067.1-1.583" transform="translate(-18.93 -111.242)" fill="#ff7b20"/>
    <path id="Path_254" data-name="Path 254" d="M13.091,152.681c.794-.283.819-.7,1.4-1.067,1.692-1.076,4.208-.844,6-.127.466.187.733.649,1.213.76.759.174,1.262-.19,1.9-.15.746.046,1.274.676,1.8.774,2.8.516,5.464.284,8.363,1.286.858.3,2.389.827,2.55,1.8l-1.192,8.251c-1.217,5.634-1.959,11.386-2.835,17.084a31.731,31.731,0,0,1-11.914,2.56,15.061,15.061,0,0,1-4.134,0c-3.409-.137-8.473-.613-11.492-2.195-.318-.166-.629-.248-.733-.646L0,156.127c.083-1.493,2.818-2.049,4.035-2.262l1.772-.395c2.436-.365,2.623-1.213,5.315-.789a4.054,4.054,0,0,0,1.969,0" transform="translate(0 -121.043)" fill="#3b1e11"/>
    <path id="Path_255" data-name="Path 255" d="M22.179,163.989c-.468.439-1.224.3-1.772.394.475-.43,1.206-.31,1.772-.394" transform="translate(-16.372 -131.561)" fill="#643618"/>
    <path id="Path_256" data-name="Path 256" d="M112.42,208.217c-.826,4.921-1.535,9.874-2.362,14.8a3.491,3.491,0,0,1-.463.4,1.729,1.729,0,0,1-.5.268,49.324,49.324,0,0,1-10.906,1.846,1.773,1.773,0,0,1-.56-.1,3.437,3.437,0,0,1-.565-.24l.061-.979c2.327-4.263,3.04-9.063,3.571-13.733l.306-.281.848-.447a43.121,43.121,0,0,0,9.752-1.689Z" transform="translate(-77.871 -166.912)" fill="#7d101e"/>
    <path id="Path_257" data-name="Path 257" d="M28.128,193.9c.788-.259.721,3.017.594,3.138q-.792.112-1.579.216a2.077,2.077,0,0,1-.363.276c-.954.544-8.715.153-10.4.024-1.481-.113-6.829-.548-7.655-1.325a2.013,2.013,0,0,1-.287-.356c-.394.46-1.148.09-1.378-.394-.186-1.179-.5-2.353-.59-3.55,6.819,2.186,14.517,2.231,21.654,1.972" transform="translate(-5.194 -153.974)" fill="#fff"/>
    <path id="Path_258" data-name="Path 258" d="M95.681,283.7c-.207,1.232-.445,2.472-.629,3.709a34.453,34.453,0,0,1-9.314,2.207,40.732,40.732,0,0,1-6.593,0l.1-.447a7.167,7.167,0,0,0,2.632-3.077l.612-.225c.036-.176.1-.169.2,0a56.725,56.725,0,0,0,12.993-2.17" transform="translate(-63.494 -227.604)" fill="#949393"/>
    <path id="Path_259" data-name="Path 259" d="M22.583,282.241l1.108-.085a41.579,41.579,0,0,0,11.426,1.674l1.049.384c-.841,1.255-1.805,3.35-3.346,3.748a31.777,31.777,0,0,1-10.79-2.208c-.278-1.287-.4-2.612-.628-3.907q.513-.57,1.181.395" transform="translate(-17.17 -225.943)" fill="#fff"/>
    <path id="Path_260" data-name="Path 260" d="M123.6,195.277a38.922,38.922,0,0,1-4.29,1.126,57.362,57.362,0,0,1-7.128.847.623.623,0,0,1-1.181,0c.167-.393,1.088-.105,1.183-.2a10.043,10.043,0,0,0-.2-3.157,42.656,42.656,0,0,0,12.2-1.973,23.476,23.476,0,0,1-.589,3.354" transform="translate(-89.052 -153.972)" fill="#949393"/>
    <path id="Path_261" data-name="Path 261" d="M10.833,210.244l.24.419a101.46,101.46,0,0,0,2.162,13.6l-.237.379a5.6,5.6,0,0,1-1.181-.395c-.834-4.791-1.6-9.6-2.362-14.4a3.33,3.33,0,0,1,1.378.394" transform="translate(-7.585 -168.347)" fill="#de5d6c"/>
    <path id="Path_262" data-name="Path 262" d="M23.7,187.059c.546-.1,3.775-.283,3.914.039.061.14-.175.307-.371.355a77.459,77.459,0,0,1-17.005-.615,22.023,22.023,0,0,1-4.8-1.306c-.31-.168-.388-.5-.246-.642a39.716,39.716,0,0,1,3.934,1.086,74.039,74.039,0,0,0,14.57,1.083" transform="translate(-4.118 -148.319)" fill="#f4f3f2"/>
    <path id="Path_263" data-name="Path 263" d="M99.055,186.309c.2-.327.747-.2,1.08-.2,4.932-.061,10.108-.117,14.667-2.166-.027.27.128.613-.121.808a16.613,16.613,0,0,1-3.611,1.073,55.471,55.471,0,0,1-8.472.881c.11-.6-.3-.382-.68-.395-.951-.032-1.913,0-2.863,0" transform="translate(-79.468 -147.569)" fill="#8f8c8a"/>
    <path id="Path_264" data-name="Path 264" d="M8.809,170.7c-.387,1.131-.24.683-.879,1.585-.508.718-.042,1.338-1.3,1.094a3.577,3.577,0,0,1-2.155-1.3A5.543,5.543,0,0,1,8.809,170.7" transform="translate(-3.593 -136.89)" fill="#b6b5b3"/>
    <path id="Path_265" data-name="Path 265" d="M165.319,172.753c-.071.587-2.071,1.42-2.353,1.175a3.4,3.4,0,0,0-.226-.857c-.487-.748-.647-.045-.965-1.5.984-.375,2.763.385,3.544,1.184" transform="translate(-129.785 -137.564)" fill="#b5b3b2"/>
    <path id="Path_266" data-name="Path 266" d="M3.845,169.944c-.062-.116-.313.071-.008-.3.873-1.054,3.32-1.409,4.633-1.677.243.119-.26.5-.294.594a14.724,14.724,0,0,0-4.331,1.381" transform="translate(-2.959 -134.755)" fill="#eae8e4"/>
    <path id="Path_267" data-name="Path 267" d="M164.377,170.741a12.313,12.313,0,0,0-3.544-1.184c-.019-.088-.443-.421-.1-.594.765.218,3.762.756,3.639,1.778" transform="translate(-128.843 -135.552)" fill="#e7e4e0"/>
    <path id="Path_268" data-name="Path 268" d="M34.343,213.256c.392-.014.79.021,1.181,0-.226,1.459-.215,2.948-.422,4.411a31.82,31.82,0,0,1-3.516,10.582c-.065,0-.131,0-.2,0a42.1,42.1,0,0,1-13.584-1.973,2.735,2.735,0,0,1-.375-.9c-.689-3.522-1.241-7.488-1.758-11.063-.1-.719-.432-1.826-.033-2.433,5.4,1.6,13.046,1.585,18.7,1.381" transform="translate(-12.393 -169.978)" fill="#d51331"/>
    <path id="Path_269" data-name="Path 269" d="M29.03,227.05c.171-.594.85-.26,1.136.242a20.585,20.585,0,0,1,1.439,6.465c-.005,2.269-.777,2.992-1.741.545a18.648,18.648,0,0,1-.834-2.912,33.558,33.558,0,0,1,0-4.34" transform="translate(-23.223 -181.898)" fill="#e15e6d"/>
    <path id="Path_270" data-name="Path 270" d="M58.215,160a2.882,2.882,0,0,1-1.672.191.654.654,0,0,1-.3-.191Z" transform="translate(-45.124 -128.36)" fill="#6a3e17"/>
    <path id="Path_271" data-name="Path 271" d="M108.792,163.312l.589.592c.238-1.263-.868-2.014-.982-3.155.384-.36,3.541.947,3.931,1.287.821.716.116,3.341.6,4.432a45.233,45.233,0,0,1-5.907.4c.41-.383.9-.013,1.389-.482.174-.168.805-1.231-.011-1.1-.367-.5.254-.412.689-.349.041.006-.808.025-.689-.243.547-.216.445-.878.394-1.381" transform="translate(-85.858 -128.912)" fill="#cc551b"/>
    <path id="Path_272" data-name="Path 272" d="M28.672,162.348c1.924-.674,2,.949,1.047,2.092a.688.688,0,0,0-.85-.12.41.41,0,0,0,.394.395c1.275-.845.772,1.705.59,2.565-.093.1-.079.282-.324.355a20.475,20.475,0,0,1-4.794-.552q-.583-.853.956-1.8a2.234,2.234,0,0,1,.74-1.391c.7-.058,1.274-.177,1.453-.949.24-.2.355-.511.788-.592" transform="translate(-19.715 -130.118)" fill="#e0641c"/>
    <path id="Path_273" data-name="Path 273" d="M141.043,166.181c1.549.951,1.552,2.348,1.378,3.945-2.257.442-5.22.923-2.165-1.973q.262-.1-.2-.2a8.1,8.1,0,0,0-.982.592,5.582,5.582,0,0,0-.2-1.973q.271-.57,1.575-.592a2.157,2.157,0,0,1,.591.2" transform="translate(-111.416 -133.162)" fill="#e0641c"/>
    <path id="Path_274" data-name="Path 274" d="M46.477,166.916a9.742,9.742,0,0,0-.214-2.551c-.048-.061-.266-.008-.377-.013-.332-.289.341-.29.312-.277a1.742,1.742,0,0,1-.592.146c-.051-.008-.085-.121-.114-.263.308-.19.706-.179.81-.315a4.152,4.152,0,0,0,.175-1.659c-.369.044-.839-.063-1.182,0a2.144,2.144,0,0,1,2.753.691c-1.563.895-.756,3.325-1.571,4.241" transform="translate(-36.339 -129.754)" fill="#bf411b"/>
    <path id="Path_275" data-name="Path 275" d="M149.829,166.982a15.019,15.019,0,0,1,1.486.78c.176.274.02.8.19,1.19.234.536,1.467.964,1.278,1.777a7.035,7.035,0,0,0-1.576.2c-.673-.77-.2-1.834-.434-2.623-.136-.464-.952-.7-.944-1.322" transform="translate(-120.201 -133.963)" fill="#cc551b"/>
    <path id="Path_276" data-name="Path 276" d="M23.524,170.127c-.456-.118-.6.047-.306-.8.239-.691.945-.846,1.047-1.021.184-.316-.064-.951.429-1.446.509-.51.957-.159,1.447-.282.095-.024.321-.42.533-.6.318.067-.349.864-.385.9-.383.338-.85.235-1.1.479-.214.212-.205.7-.4.977-.371.513-1.529.735-1.265,1.79" transform="translate(-18.505 -133.162)" fill="#e89664"/>
    <path id="Path_277" data-name="Path 277" d="M144.851,175.068c.6-.232,1.314-.481,1.376.395-.388-.274-.8-.135-1.179-.2-.04-.007-.121-.16-.2-.2" transform="translate(-116.208 -140.273)" fill="#743215"/>
    <path id="Path_278" data-name="Path 278" d="M139.682,165.857l-1.575.592c-.026-.108-.2-.251-.19-.3.066-.391,1.382-.344,1.764-.3" transform="translate(-110.646 -133.035)" fill="#d58756"/>
    <path id="Path_279" data-name="Path 279" d="M67.8,155.924q1.122,1.424,2.362,2.762c.012.062-.007.133,0,.2.491.781.727,1.264-.394,1.381q-.422.139,0,.592a.662.662,0,0,1,.768.109c.692.861-1.45,1.549-2.146,1.469a71.254,71.254,0,0,1-9.253-.2c-.477-.341-.22-3.033.025-3.49a1.556,1.556,0,0,1,.344-.455,4.132,4.132,0,0,0,2.781-2.565,6.2,6.2,0,0,1,5.512.2" transform="translate(-47.232 -124.483)" fill="#e0641c"/>
    <path id="Path_280" data-name="Path 280" d="M58.587,158c.346.057-.087.563-.167.721a5.075,5.075,0,0,1-.71,1.262c-.437.456-1.728.823-1.837,1.018-.257.462-.254,2.8-.436,3.51-.382-.043-.8.032-1.181,0,1.131-1.382-.082-3.543,1.7-4.51.379-.206.843-.174,1.167-.409.421-.305.705-1.141,1.466-1.589" transform="translate(-43.527 -126.759)" fill="#f4a574"/>
    <path id="Path_281" data-name="Path 281" d="M106.353,161.762c-.886-.833-2.518-1.292-2.362-2.762a5.311,5.311,0,0,1,2.362,2.762" transform="translate(-83.419 -127.559)" fill="#ba401b"/>
    <path id="Path_282" data-name="Path 282" d="M101.2,178.545c.416.071,1.123-.2,1.183.491-.189.232-.571-.116-.872-.093-.166.013-.284.194-.311.194-1.133-.018-1.3-.61-1.868-.612-.963,0-.612,1.008-1.284.708.27-.885.8-1.52,1.783-1.193a5.157,5.157,0,0,0,1.369.505" transform="translate(-78.659 -142.764)" fill="#552612"/>
    <path id="Path_283" data-name="Path 283" d="M78.133,175.6a2.981,2.981,0,0,0-.39-1.88l-1.58-.881c1.543-.192,2.531.428,2.372,2.074-.028.294-.052.614-.4.687" transform="translate(-61.102 -138.632)" fill="#4e2411"/>
    <path id="Path_284" data-name="Path 284" d="M36.714,172.967l.786,0c.069.244-.218.212-.393.393-1.245,1.285-.836.456-1.848.637-.315.056-.557.665-.906.744,0-1.424,1.1-.995,1.835-1.219.264-.081.355-.451.525-.556" transform="translate(-27.561 -138.764)" fill="#462212"/>
  </g>
</svg>
