<svg xmlns="http://www.w3.org/2000/svg" width="36" height="31.5" viewBox="0 0 36 31.5">
  <path id="Icon_fa-solid-newspaper" data-name="Icon fa-solid-newspaper" d="M6.75,6.75a4.5,4.5,0,0,1,4.5-4.5H31.5A4.5,4.5,0,0,1,36,6.75v22.5a4.5,4.5,0,0,1-4.5,4.5H5.625A5.623,5.623,0,0,1,0,28.125V9A2.25,2.25,0,0,1,4.5,9V28.125a1.125,1.125,0,0,0,2.25,0Zm4.5,1.688v5.625a1.683,1.683,0,0,0,1.688,1.688h7.875A1.683,1.683,0,0,0,22.5,14.063V8.438A1.683,1.683,0,0,0,20.813,6.75H12.938A1.683,1.683,0,0,0,11.25,8.438Zm14.625-.562A1.128,1.128,0,0,0,27,9h3.375a1.125,1.125,0,0,0,0-2.25H27A1.128,1.128,0,0,0,25.875,7.875Zm0,6.75A1.128,1.128,0,0,0,27,15.75h3.375a1.125,1.125,0,0,0,0-2.25H27A1.128,1.128,0,0,0,25.875,14.625ZM11.25,21.375A1.128,1.128,0,0,0,12.375,22.5h18a1.125,1.125,0,0,0,0-2.25h-18A1.128,1.128,0,0,0,11.25,21.375Zm0,6.75a1.128,1.128,0,0,0,1.125,1.125h18a1.125,1.125,0,0,0,0-2.25h-18A1.128,1.128,0,0,0,11.25,28.125Z" transform="translate(0 -2.25)" fill="#ed1c24"/>
</svg>
