<svg xmlns="http://www.w3.org/2000/svg" width="23.827" height="38.123" viewBox="0 0 23.827 38.123">
  <path id="Icon_awesome-mobile-alt" data-name="Icon awesome-mobile-alt" d="M20.253,0H3.574A3.575,3.575,0,0,0,0,3.574V34.549a3.575,3.575,0,0,0,3.574,3.574H20.253a3.575,3.575,0,0,0,3.574-3.574V3.574A3.575,3.575,0,0,0,20.253,0ZM11.913,35.74A2.383,2.383,0,1,1,14.3,33.358,2.38,2.38,0,0,1,11.913,35.74ZM20.253,27.7a.9.9,0,0,1-.894.894H4.468a.9.9,0,0,1-.894-.894V4.468a.9.9,0,0,1,.894-.894H19.359a.9.9,0,0,1,.894.894Z" fill="#ed1c24"/>
</svg>
